<svg viewBox="0 0 2048 985" width="1428" height="687" xmlns="http://www.w3.org/2000/svg"><path d="M1404 428h58l35 3 32 5 23 5 30 10 19 8 24 12 14 10 10 8 13 12 8 9 9 14 7 14 4 14 2 11v31h-138l-3-14-6-10-6-7-14-9-12-6-23-6-22-3h-48l-25 5-13 5-16 9-12 11-7 10-4 11-1 6v17l4 13 6 9 8 7 12 6 13 3 92 1v96l-100 1-14 2-11 4-8 5-7 6-6 9-4 11-2 16 1 14 4 14 6 10 9 10 11 8 13 6 24 6 17 2 20 1h20l26-2 21-4 21-7 14-9 7-6 7-10 5-12 2-11 1-160h181V430h124v435h188l-1 108h-311V748h-41v55l-2 28-4 20-5 17-8 18-10 16-8 10-9 10-13 12-16 11-18 10-25 10-24 7-29 6-36 4-46 2-41-1-30-2-30-4-31-6-24-7-19-7-25-12-14-9-12-9-13-12-10-11-10-15-9-19-5-18-2-13v-29l2-15 5-19 8-18 9-15 10-11 4-5 11-9 10-7 14-8 20-8v-2l-16-8-11-7-10-8-7-6-9-11-7-10-10-19-5-16-2-11-1-17 2-20 5-19 1-3h-54v435h-124V538l-128 1 7 16 5 18 4 26v22l-4 26-6 24-8 21-10 21-14 23-11 15-13 16-11 12-22 22-11 9-12 10-17 12-15 10-22 13-16 9-33 15-26 10-4 2 21 10 15 7 24 10 29 10 9-3 29-14 21-12 20-13 19-14 14-12 12-11 10-11 9-11 13-18 9-15 10-19 9-23 6-23 3-19 1-9v-25l-3-21-5-16-7-15v-5l3-3h6l4 4 7 16 5 17 2 14 1 14v13l-2 26-6 27-5 16-6 15-8 16-7 13-10 15-13 17-12 14-14 14-8 7-16 13-20 14-20 12-18 10-20 10h-3v2l8 1 22 4 21 2h13l19-3 15-5 13-7 10-8 8-7 11-14 9-14 11-23 7-19 7-24 6-27 3-20 4-5h5l3 3v12l-6 31-7 27-9 26-13 27-10 15-9 11-11 11-15 11-15 7-21 6-7 1h-33l-30-5-25-7-6 1-20 8-21 7-32 9-36 7-20 2h-30l-17-3-19-7-19-10-16-12-10-9-11-11-13-17-13-21-8-15-11-28-4-13-1-6-1 149H304V756H129v217H5V430h124v217h175V430h124l1 354 4-12 7-11 11-11 9-6-5-12-8-18-4-11-3-19 1-14 4-11 8-11 11-8 13-6 16-5 42-11 25-8 23-8 27-12 21-12 17-12 14-11 22-22 11-15 8-14 6-16 2-12v-8l-2-11-8-16 2-4 5-2 5 3 6 10 3 7 2 14-1 16-3 12-7 17-11 17-11 14-19 19-14 11-17 12-21 12-25 12-30 11-32 10-39 10-19 7-9 6-5 5-5 8-2 6v18l4 15 9 21 5 9 7-1 28-7 47-10 36-10 27-10 25-11 25-13 24-15 14-10 14-11 13-11 10-9 12-11 7-8 11-12 9-11 7-10 4-8-7-14-16-26-13-25-6-18-1-4v-13l5-8 4-2h12l10 5 10 8 9 9 9 13 5 10 4 14v22l-5 17-4 11 2 10 4 18 1 7v27l-4 20-6 16-8 16-7 12-12 16-9 11-12 13-16 16-11 9-12 10-19 14-28 17-26 13-27 11-29 9-33 8 5 5 15 12 17 12 17 11 15 9 5 1 27-9 26-11 30-15 22-13 21-14 17-13 13-11 8-7 12-11 8-8 7-8 11-13 12-17 12-19 8-15 8-19 6-18 5-22 2-12v-35l-4-21-7-19-9-17-10-13-9-10-12-10 1-6 3-2 6 1 9 6 12 12 10 13 6 10V430h383l1 31 20-9 36-12 33-7 23-3zm-641 33-1 1v12l5 15 8 16 13 22 10 16h3l4-13v-22l-5-13-6-11-11-12-8-7-9-4zm35 113-12 16-9 11-15 16-13 13-8 7-13 11-20 15-19 13-17 10-29 15-24 10-27 10-38 10-52 11-22 6v3l14 19 11 13 11 12 23 23 5 3 33-7 28-8 28-11 29-14 19-11 18-12 13-10 13-11 13-12 20-20 9-11 11-15 9-15 8-16 5-15 3-15 1-8v-9l-4-26zM467 754l-11 8-7 8-7 14-3 11v17l4 20 7 21 8 17 2 1 5-12 7-9 9-8 16-8 16-5 15-4-6-7-9-9-7-8-13-14-11-14-9-12-5-7zm70 81-16 3-21 7-13 7-10 10-4 9-1 4v12l3 10 6 11 9 10 4 5 8 7 13 11 12 8h2v-15l4-10 5-6v-2l4-2 8-6 13-6 23-7 27-7v-2l-22-13-17-12-19-14-12-11zm87 61-44 12-20 7-9 6-7 7-4 9v8l4 8 7 6 8 3 18 3h20l31-4 28-6 29-8 26-9 5-2-1-2-23-8-34-15-20-10-8-5zM314 102h29l18 3 15 5 14 8 10 9 8 9 8 14 5 13 4 18 1 8 1 25v177H320l-1-177-3-13-6-10-8-6-9-3-11-1-13 2-12 6-9 9-6 12-2 11-1 170H133V108h86l2 3 6 38 17-17 15-11 17-9 21-7zM4 108h105l1 1v282H3V109zM690 4h11l6 4 6 8 8 17 7 24 6 30 4 37 1 38-2 35-3 25-1 4 1-1 8-16 11-20 14-22 9-12 9-11 11-12 13-13 14-11 13-8 15-7 11-3h12l5 3 3 4v13l-6 16-13 26-16 26-16 23-13 18-12 16-29 38-14 18-12 17-16 24-12 20-12 21-4 3-6-1-3-4v-19l4-30 9-45 7-38 4-28 3-29v-57l-3-30-5-28-5-20-7-19-6-9-5-2-6 8-8 20-4 13-5 25-4 37v57l3 33 4 29 3 19 9 44 3 22 1 10v14l-2 3h-6l-3-3-1-5-2-21-4-25-6-24-9-26-12-25-15-24-12-16-10-11-7-8-13-12-16-12-15-9-16-8-11-4-9-1-11 1-3-3 1-7 6-4h14l21 7 19 10 15 10 14 11 12 11 12 12 11 14 10 14 16 26-4-44v-57l4-37 5-24 7-24 6-14 8-11zm175 98-16 5-16 9-10 8-12 11-13 13-9 11-10 13-14 22-12 21-13 27-13 35-8 25-7 33-1 10 3-3 15-24 14-20 12-17 16-21 12-16 14-18 14-19 13-18 18-27 9-15 12-23 6-14 1-7z" fill="#82C4A3"/><path d="M479 214h9l15 3 18 6 24 11 14 8 18 12 16 12 10 9 8 7 12 12 9 11 12 15 11 17 9 16 11 23 5 13v8l-5 3-5-3-10-22-11-23-12-19-12-16-11-13-24-24-17-13-20-13-24-13-19-8-14-4-12-2 4 10 9 11 12 13 27 27 8 7 8 8 8 7 13 12 12 11 8 7 10 9 16 15 13 12 12 11 14 15 8 8 5 6 5 3 11 1 6-4 10-11 14-19 13-18 13-16 8-10 7-7 7-8 20-18 20-15 17-11 16-9 16-8 18-7 19-5 12-2h12l11 3 5 4 3 6v10l-8 16-10 13-15 16-7 7-8 7-14 12-20 15-24 16-20 12-18 10-24 12-25 10-19 6-18 4-9 1h-18l-19-5-25-11-33-17-19-10-25-12-30-10-14-3-9-1h-13l-11 2 1 6 6 9 8 8 15 11 22 12 17 7 14 4 4 5-1 5-3 2-10-1-15-5-25-12-14-9-10-8-10-9-9-11-5-11 1-7 5-6 8-3 12-2h13l26 4 19 6 20 8 44 22 19 10 16 8-19-19-8-7-15-14-12-11-8-7-10-9-12-11-10-9-17-16-7-7-8-7-27-27-9-11-7-8-6-10-2-6 1-9 5-5zm424 50-20 4-17 6-25 12-16 9-17 12-14 11-13 12-25 25-9 11-13 17-13 18-11 15v2l5-1 27-9 23-10 22-11 23-13 30-20 18-13 13-11 11-9 25-25 10-14 4-8v-6l-4-3-5-1zM4 3h106v72H4l-1-1V8zm663 433 5 2 2 2v6l-7 9-16 16-13 9-17 10-20 9-44 16-20 8-13 7-13 10-12 12-9 12-9 15-3 3-6-2-2-3 1-7 9-15 10-13 14-14 16-11 21-10 34-12 21-8 20-9 14-8 12-9 12-11 11-13zm-41 5h6l3 3-1 6-4 3-23 8-29 14-14 9-9 7-5 1-5-3-1-4 4-6 16-11 16-9 22-10z" fill="#82C4A3"/></svg>